<svg xmlns="http://www.w3.org/2000/svg" xmlns:xlink="http://www.w3.org/1999/xlink" width="512" height="235.45" viewBox="0 0 512 235.45"><defs><path id="iw0va" d="M887 350.07v205.49H375V350.07h512z"/><path id="iw0vd" d="M432.09 350.07h406c11.4 0 20.64 9.26 20.64 20.68a20.66 20.66 0 0 1-20.63 20.67h-46.5a22.4 22.4 0 0 0-22.38 22.43 22.4 22.4 0 0 0 22.39 22.43h70.09a25.33 25.33 0 0 1 25.3 25.35c0 14-11.33 25.35-25.3 25.35H830c-37.8 0-68.44 30.7-68.44 68.58H518.86a42.11 42.11 0 0 0-41.53-42.15l-74.55-.96a28.17 28.17 0 0 1-27.78-28.2c0-15.57 12.6-28.2 28.14-28.2h23.8a35.72 35.72 0 0 1 35.2-35.74l37.43-.5a14.18 14.18 0 0 0 13.97-14.2c0-7.83-6.34-14.19-14.16-14.19h-67.3a20.66 20.66 0 0 1-20.63-20.67 20.66 20.66 0 0 1 20.64-20.68"/><path id="iw0ve" d="M610.48 507.58H445.74a5.07 5.07 0 0 1-5.06-5.08v-89.62a9.5 9.5 0 0 1 9.5-9.52h155.87a9.5 9.5 0 0 1 9.5 9.52v89.62c0 2.8-2.27 5.08-5.07 5.08"/><path id="iw0vf" d="M468.57 403.36h-21.5a6.79 6.79 0 0 0-6.77 6.8v94.47"/><path id="iw0vb" d="M375 556.89h512V323H375z"/><path id="iw0vh" d="M450.16 495.86h156.08v-82.31H450.16z"/><path id="iw0vi" d="M501.76 554.62h52.68v-31.25h-52.68z"/><path id="iw0vj" d="M501.76 539h52.68v-15.63h-52.68z"/><path id="iw0vk" d="M615.54 503.75H440.67v7.52c0 8.91 7.21 16.14 16.11 16.14h142.65c8.9 0 16.1-7.23 16.1-16.14z"/><path id="iw0vl" d="M544.66 503.75H440.67v12.14c0 6.36 5.15 11.52 11.5 11.52h92.21"/><path id="iw0vm" d="M491.52 555.2h73.86"/><path id="iw0vn" d="M531.02 466.38a10.31 10.31 0 1 1 7.83-17.03l-2.7-15.93v-5.03c0-1.8-1.46-3.25-3.26-3.25h-3.75a3.25 3.25 0 0 0-3.25 3.25v5.03c-2.57.58-4.96 1.6-7.13 2.94l-3.53-3.57a3.24 3.24 0 0 0-4.6-.02l-2.66 2.64a3.26 3.26 0 0 0-.03 4.6l3.53 3.58a23.03 23.03 0 0 0-3.02 7.24l-5.02-.03a3.23 3.23 0 0 0-3.26 3.25l-.02 3.76a3.26 3.26 0 0 0 3.23 3.27l5.01.02c.6 2.62 1.6 5.06 2.99 7.25l-3.57 3.56a3.25 3.25 0 0 0-.01 4.6l2.64 2.66a3.23 3.23 0 0 0 4.6.02l3.56-3.54a23.2 23.2 0 0 0 7.23 3.03l-.02 5.02c0 1.8 1.44 3.27 3.24 3.27l3.76.01c1.79 0 3.25-1.44 3.25-3.23l.01-5.04c2.61-.58 5.06-1.62 7.25-3l-2.7-15.91a10.3 10.3 0 0 1-9.6 6.58zm10.3-10.33c0 1.32-.25 2.58-.7 3.75l-1.77-10.45a10.27 10.27 0 0 1 2.46 6.7z"/><path id="iw0vo" d="M487.2 391.7h.48a17.25 17.25 0 0 1 16.56-12.46c3.43 0 6.62 1.02 9.3 2.75a23.61 23.61 0 0 1 23.31-20.04c10.6 0 19.57 7 22.55 16.63a16.22 16.22 0 0 1 20.21 13.12h2.64c6.66 0 12.11 5.47 12.11 12.14v.9c0 6.67-5.45 12.12-12.1 12.12H487.2c-6.66 0-12.11-5.45-12.11-12.13v-.89c0-6.67 5.45-12.13 12.1-12.13"/><path id="iw0vp" d="M498.34 394.68h.42a15.21 15.21 0 0 1 22.8-8.57 20.81 20.81 0 0 1 20.55-17.66c9.34 0 17.24 6.17 19.88 14.66a14.3 14.3 0 0 1 17.82 11.57h2.32c5.87 0 10.68 4.82 10.68 10.7v.78c0 5.89-4.8 10.7-10.68 10.7h-83.79a10.71 10.71 0 0 1-10.67-10.7v-.78c0-5.88 4.8-10.7 10.67-10.7"/><path id="iw0vq" d="M521.47 380.07a19.62 19.62 0 0 1 26.52-6.24"/><path id="iw0vr" d="M551.1 416.86h-63.9c-6.65 0-12.1-5.46-12.1-12.13v-.9c0-6.67 5.45-12.13 12.1-12.13h.48a17.26 17.26 0 0 1 16.56-12.46 17.1 17.1 0 0 1 9.3 2.74 23.61 23.61 0 0 1 23.31-20.03 23.54 23.54 0 0 1 20.61 12.11c.8 1.42 1.45 2.94 1.94 4.52a16.22 16.22 0 0 1 20.21 13.12h2.64c6.66 0 12.11 5.46 12.11 12.14v.89c0 6.67-5.45 12.13-12.1 12.13"/><path id="iw0vs" d="M563.3 377.94a8.41 8.41 0 0 0-8.4 8.42"/><path id="iw0vt" d="M786.9 555.56V394.5a8.46 8.46 0 0 0-8.44-8.47H653.58a8.46 8.46 0 0 0-8.45 8.47v161.05z"/><path id="iw0vu" d="M645.13 407.98v-14.82a7.11 7.11 0 0 1 7.1-7.12H779.8c3.92 0 7.1 3.19 7.1 7.12v14.82z"/><path id="iw0vv" d="M655.27 386.04H779.8c3.93 0 7.1 3.19 7.1 7.12v162.4"/><path id="iw0vw" d="M645.13 408.37h141.78"/><path id="iw0vx" d="M661.41 398.22h5.67"/><path id="iw0vy" d="M674.54 398.22h5.67"/><path id="iw0vz" d="M687.68 398.22h5.67"/><path id="iw0vA" d="M662.81 452.93h106.42v-33.31H662.81z"/><path id="iw0vB" d="M701.12 485h26.92v-21.82h-26.92z"/><path id="iw0vC" d="M742.31 485h26.92v-21.82h-26.92z"/><path id="iw0vD" d="M735.77 366.4h9.6"/><path id="iw0vE" d="M740.57 371.2v-9.61"/><path id="iw0vF" d="M399.07 418.06h9.6"/><path id="iw0vG" d="M403.87 422.87v-9.62"/><path id="iw0vH" d="M581.61 343.79l6.79-6.8"/><path id="iw0vI" d="M588.4 343.79l-6.79-6.8"/><path id="iw0vJ" d="M855.34 462.22l6.79-6.8"/><path id="iw0vK" d="M862.13 462.22l-6.79-6.8"/><path id="iw0vL" d="M679.04 366.4h39.06"/><path id="iw0vM" d="M801.5 458.51h39.06"/><path id="iw0vN" d="M594.39 340.39h86.22"/><path id="iw0vO" d="M408.67 391.43h57.22"/><path id="iw0vP" d="M729.49 366.4h-8.02"/><path id="iw0vQ" d="M808.94 506.47a3.88 3.88 0 1 1-7.77 0 3.88 3.88 0 0 1 7.77 0"/><path id="iw0vR" d="M713.85 326.89a3.88 3.88 0 1 1-7.77 0 3.88 3.88 0 0 1 7.77 0"/><path id="iw0vS" d="M474.6 375.58a3.88 3.88 0 1 1-7.76 0 3.88 3.88 0 0 1 7.77 0"/><path id="iw0vT" d="M430.82 514.43a3.89 3.89 0 1 1-7.77 0 3.89 3.89 0 0 1 7.77 0"/><path id="iw0vU" d="M819.04 413.83a2.11 2.11 0 1 1-4.22 0 2.11 2.11 0 0 1 4.22 0"/><path id="iw0vV" d="M610.45 361.6a2.11 2.11 0 1 1-4.22 0 2.11 2.11 0 0 1 4.22 0"/><path id="iw0vW" d="M413.56 441.48a2.11 2.11 0 1 1-4.22 0 2.11 2.11 0 0 1 4.22 0"/><path id="iw0vX" d="M556.14 553.51v-26.1h43.3c8.9 0 16.1-7.23 16.1-16.14v-7.52h-.17c.1-.4.17-.82.17-1.25v-89.62a9.5 9.5 0 0 0-9.5-9.52h-38a25.44 25.44 0 0 0-12.14 16.74h-2.48a19.55 19.55 0 0 0-19.51 19.54v1.32c0 7.47 4.2 13.97 10.37 17.26v5.83h-1.69v76.39h-7.84l1.42 8.68a9.22 9.22 0 0 0 9.13 7.77h20.08v-3.38z"/><path id="iw0vY" d="M718.84 548.24l1.28-7.8h-8.67v-54.32h1.68v-23.2h-1.68v-4.7a19.56 19.56 0 0 0 10.36-17.26v-1.32c0-10.6-8.46-19.25-18.97-19.54a27.22 27.22 0 0 0-25.6-18.35c-4.37 0-8.63 1.05-12.49 3.07a36.33 36.33 0 0 0-10.69-18.78h-1.82a7.11 7.11 0 0 0-7.11 7.12v162.4h68.6a10.26 10.26 0 0 0 5.11-7.32"/><path id="iw0vZ" d="M704.71 548.87h-153.7a2.25 2.25 0 0 1-2.24-2.25V437.2a2.25 2.25 0 0 1 2.25-2.25H704.7a2.25 2.25 0 0 1 2.25 2.25v109.42a2.25 2.25 0 0 1-2.25 2.25"/><path id="iw0vaa" d="M703.02 548.88H552.69a3.95 3.95 0 0 1-3.93-3.94v-80.89"/><path id="iw0vab" d="M706.95 462.93v23.2"/><path id="iw0vac" d="M556.45 536.37h141.96v-92.45H556.45z"/><path id="iw0vad" d="M704.19 555.2h-154.4a7.57 7.57 0 0 1-7.47-6.35l-1.1-6.72h71.56l2.74 3.94h19.77l2.96-3.94h75.39l-.95 5.85a8.62 8.62 0 0 1-8.5 7.23"/><path id="iw0vae" d="M704.19 555.2h-154.4a7.57 7.57 0 0 1-7.47-6.35l-1.1-6.72h71.56l2.74 3.94h19.77l2.96-3.94h75.39l-.95 5.85a8.62 8.62 0 0 1-8.5 7.23z"/><path id="iw0vaf" d="M697.81 421.8h-.7a25.4 25.4 0 0 0-24.37-18.36 25.2 25.2 0 0 0-13.7 4.04 34.75 34.75 0 0 0-34.3-29.49c-15.6 0-28.8 10.3-33.2 24.48a23.78 23.78 0 0 0-6.2-.84 23.87 23.87 0 0 0-23.55 20.16h-3.89a17.9 17.9 0 0 0-17.82 17.86v1.31a17.9 17.9 0 0 0 17.82 17.86h139.91a17.9 17.9 0 0 0 17.82-17.86v-1.31a17.9 17.9 0 0 0-17.82-17.86"/><path id="iw0vag" d="M670.8 458.82h27.01a17.9 17.9 0 0 0 17.82-17.86v-1.31a17.9 17.9 0 0 0-17.82-17.86h-.7a25.4 25.4 0 0 0-24.37-18.35 25.2 25.2 0 0 0-13.7 4.04 34.75 34.75 0 0 0-34.3-29.49c-15.6 0-28.8 10.3-33.2 24.48a23.78 23.78 0 0 0-6.2-.84 23.87 23.87 0 0 0-23.55 20.16h-3.89a17.9 17.9 0 0 0-17.82 17.86v1.31a17.9 17.9 0 0 0 17.82 17.86h25"/><path id="iw0vah" d="M647.37 404.66a28.87 28.87 0 0 0-39.03-9.19"/><path id="iw0vai" d="M585.79 401.52c6.83 0 12.37 5.55 12.37 12.4"/><path id="iw0vaj" d="M616.04 458.8a11.23 11.23 0 1 1 22.46 0 11.24 11.24 0 1 1-22.46 0zm35.87-5.55a25.38 25.38 0 0 0-3.27-7.9l3.87-3.89a3.54 3.54 0 0 0 .01-5l-2.9-2.91a3.53 3.53 0 0 0-5-.01l-3.88 3.88a25.06 25.06 0 0 0-7.88-3.28v-5.48a3.55 3.55 0 0 0-3.54-3.55h-4.1a3.54 3.54 0 0 0-3.54 3.55v5.48c-2.8.63-5.4 1.74-7.77 3.2l-3.85-3.9a3.53 3.53 0 0 0-5-.01l-2.92 2.88a3.56 3.56 0 0 0-.02 5.01l3.85 3.9a25.16 25.16 0 0 0-3.3 7.9l-5.48-.03a3.53 3.53 0 0 0-3.54 3.54l-.03 4.1a3.55 3.55 0 0 0 3.53 3.57l5.46.01a25 25 0 0 0 3.25 7.9l-3.9 3.9a3.54 3.54 0 0 0 0 5l2.87 2.9a3.53 3.53 0 0 0 5.01.02l3.9-3.86a25.26 25.26 0 0 0 7.88 3.31l-.02 5.47a3.54 3.54 0 0 0 3.52 3.56l4.1.02a3.53 3.53 0 0 0 3.55-3.53l.01-5.49a25.3 25.3 0 0 0 7.9-3.27l3.86 3.9a3.56 3.56 0 0 0 5.02 0l2.9-2.89a3.52 3.52 0 0 0 0-5l-3.85-3.9c1.51-2.4 2.64-5.05 3.28-7.9l5.47.01a3.55 3.55 0 0 0 3.55-3.54v-4.12a3.53 3.53 0 0 0-3.53-3.53z"/><path id="iw0vak" d="M627.28 470.07a11.24 11.24 0 1 1 0-22.48 11.24 11.24 0 0 1 0 22.48zm30.1-16.8l-5.47-.02a25.38 25.38 0 0 0-3.27-7.9l3.87-3.89a3.54 3.54 0 0 0 .01-5l-2.9-2.91a3.53 3.53 0 0 0-5-.01l-3.88 3.88a25.06 25.06 0 0 0-7.88-3.28v-5.48a3.55 3.55 0 0 0-3.54-3.55h-4.1a3.54 3.54 0 0 0-3.54 3.55v5.48c-2.8.63-5.4 1.74-7.77 3.2l-3.85-3.9a3.53 3.53 0 0 0-5-.01l-2.92 2.88a3.56 3.56 0 0 0-.02 5.01l3.85 3.9a25.16 25.16 0 0 0-3.3 7.9l-5.48-.03a3.53 3.53 0 0 0-3.54 3.54l-.03 4.1a3.55 3.55 0 0 0 3.53 3.57l5.46.01a25 25 0 0 0 3.25 7.9l-3.9 3.9a3.54 3.54 0 0 0 0 5l2.87 2.9a3.53 3.53 0 0 0 5.01.02l3.9-3.86a25.26 25.26 0 0 0 7.88 3.31l-.02 5.47a3.54 3.54 0 0 0 3.52 3.56l4.1.02a3.53 3.53 0 0 0 3.55-3.53l.01-5.49a25.3 25.3 0 0 0 7.9-3.27l3.86 3.9a3.56 3.56 0 0 0 5.02 0l2.9-2.89a3.52 3.52 0 0 0 0-5l-3.85-3.9c1.51-2.4 2.64-5.05 3.28-7.9l5.47.01a3.55 3.55 0 0 0 3.55-3.54v-4.12a3.53 3.53 0 0 0-3.53-3.53z"/><path id="iw0val" d="M764.57 488.62h-5.41v1.69h-5.91v-1.69h-7.3v1.69h-8.87v-1.69h-54.14a5.88 5.88 0 0 0-5.87 5.88V551a5.88 5.88 0 0 0 5.87 5.88h81.63a5.88 5.88 0 0 0 5.87-5.88V494.5a5.88 5.88 0 0 0-5.87-5.88"/><path id="iw0vam" d="M768.95 555.2h-81.4a4.3 4.3 0 0 1-4.3-4.3v-56.29a4.3 4.3 0 0 1 4.3-4.3h81.4a4.3 4.3 0 0 1 4.3 4.3v56.29a4.3 4.3 0 0 1-4.3 4.3"/><path id="iw0van" d="M763.65 490.31h5.41a4.19 4.19 0 0 1 4.19 4.19v56.51c0 2.32-1.88 4.2-4.19 4.2h-81.63a4.19 4.19 0 0 1-4.18-4.2V494.5a4.19 4.19 0 0 1 4.18-4.19h54.15"/><path id="iw0vao" d="M750.45 490.31h7.29"/><path id="iw0vap" d="M690.24 514.42v16.66"/><path id="iw0vaq" d="M694.9 549.66h65.82v-53.8H694.9z"/><path id="iw0var" d="M767.29 522.75a2.34 2.34 0 1 1-4.68 0 2.34 2.34 0 0 1 4.68 0z"/><path id="iw0vas" d="M727.79 531.54a6.51 6.51 0 1 1 0-13.03 6.51 6.51 0 0 1 0 13.03zm17.43-9.73l-3.16-.01a14.65 14.65 0 0 0-1.9-4.58l2.24-2.25c.8-.8.81-2.1 0-2.9l-1.67-1.68c-.8-.8-2.1-.81-2.9-.01l-2.24 2.25a14.61 14.61 0 0 0-4.56-1.9v-3.18c0-1.13-.93-2.05-2.06-2.05h-2.37c-1.13 0-2.05.92-2.05 2.05v3.18c-1.62.36-3.13 1-4.5 1.85l-2.23-2.25c-.8-.8-2.1-.82-2.9-.02l-1.68 1.68c-.8.8-.81 2.1-.02 2.9l2.23 2.26a14.56 14.56 0 0 0-1.91 4.57l-3.17-.02c-1.14 0-2.05.91-2.05 2.05l-.02 2.38c0 1.13.91 2.05 2.04 2.06l3.16.01c.38 1.66 1.02 3.2 1.89 4.58l-2.26 2.25c-.8.8-.8 2.1 0 2.9l1.66 1.68c.8.81 2.1.81 2.9.01l2.26-2.23a14.7 14.7 0 0 0 4.57 1.91l-.02 3.17c0 1.13.91 2.06 2.04 2.06l2.37.01c1.14 0 2.06-.9 2.06-2.04v-3.18a14.64 14.64 0 0 0 4.58-1.89l2.24 2.26c.8.8 2.1.8 2.9 0l1.68-1.68c.8-.8.8-2.1 0-2.9l-2.22-2.25a14.62 14.62 0 0 0 1.9-4.58h3.16c1.13 0 2.05-.91 2.05-2.04v-2.38c0-1.13-.9-2.05-2.04-2.05z"/><path id="iw0vat" d="M436.06 555.2h367.88"/><path id="iw0vau" d="M425.81 555.2h6.15"/><path id="iw0vav" d="M807.45 555.2h13.58"/><clipPath id="iw0vc"><use xlink:href="#iw0va"/></clipPath><clipPath id="iw0vg"><use xlink:href="#iw0vb"/></clipPath></defs><g><g transform="translate(-375 -322)"><g><g/><g clip-path="url(#iw0vc)"><use fill="#bfdff5" xlink:href="#iw0vd"/></g></g><g><use fill="#5fb0e5" xlink:href="#iw0ve"/></g><g><use fill="#fff" fill-opacity="0" stroke="#0686d8" stroke-miterlimit="50" stroke-width="1.5" xlink:href="#iw0vf"/></g><g/><g clip-path="url(#iw0vg)"><use fill="#fff" xlink:href="#iw0vh"/></g><g clip-path="url(#iw0vg)"><use fill="#d2e9f7" xlink:href="#iw0vi"/></g><g clip-path="url(#iw0vg)"><use fill="#9ecfef" xlink:href="#iw0vj"/></g><g clip-path="url(#iw0vg)"><use fill="#fff" fill-opacity="0" stroke="#0686d8" stroke-miterlimit="50" stroke-width="1.5" xlink:href="#iw0vi"/></g><g clip-path="url(#iw0vg)"><use fill="#fff" xlink:href="#iw0vk"/></g><g clip-path="url(#iw0vg)"><use fill="#fff" fill-opacity="0" stroke="#0686d8" stroke-miterlimit="50" stroke-width="1.5" xlink:href="#iw0vl"/></g><g clip-path="url(#iw0vg)"><use fill="#fff" fill-opacity="0" stroke="#0686d8" stroke-miterlimit="50" stroke-width="1.5" xlink:href="#iw0vm"/></g><g clip-path="url(#iw0vg)"><use fill="#fff" fill-opacity="0" stroke="#0686d8" stroke-miterlimit="50" stroke-width="1.5" xlink:href="#iw0vn"/></g><g clip-path="url(#iw0vg)"><use fill="#d2e9f7" xlink:href="#iw0vo"/></g><g clip-path="url(#iw0vg)"><use fill="#fff" xlink:href="#iw0vp"/></g><g clip-path="url(#iw0vg)"><use fill="#fff" fill-opacity="0" stroke="#0686d8" stroke-miterlimit="50" stroke-width="1.5" xlink:href="#iw0vq"/></g><g clip-path="url(#iw0vg)"><use fill="#fff" fill-opacity="0" stroke="#0686d8" stroke-miterlimit="50" stroke-width="1.5" xlink:href="#iw0vr"/></g><g clip-path="url(#iw0vg)"><use fill="#fff" fill-opacity="0" stroke="#0686d8" stroke-miterlimit="50" stroke-width="1.5" xlink:href="#iw0vs"/></g><g clip-path="url(#iw0vg)"><use fill="#fff" xlink:href="#iw0vt"/></g><g clip-path="url(#iw0vg)"><use fill="#5fb0e5" xlink:href="#iw0vu"/></g><g clip-path="url(#iw0vg)"><use fill="#fff" fill-opacity="0" stroke="#0686d8" stroke-miterlimit="50" stroke-width="1.5" xlink:href="#iw0vv"/></g><g clip-path="url(#iw0vg)"><use fill="#fff" fill-opacity="0" stroke="#0686d8" stroke-miterlimit="50" stroke-width="1.5" xlink:href="#iw0vw"/></g><g clip-path="url(#iw0vg)"><use fill="#fff" fill-opacity="0" stroke="#0686d8" stroke-miterlimit="50" stroke-width="1.5" xlink:href="#iw0vx"/></g><g clip-path="url(#iw0vg)"><use fill="#fff" fill-opacity="0" stroke="#0686d8" stroke-miterlimit="50" stroke-width="1.5" xlink:href="#iw0vy"/></g><g clip-path="url(#iw0vg)"><use fill="#fff" fill-opacity="0" stroke="#0686d8" stroke-miterlimit="50" stroke-width="1.5" xlink:href="#iw0vz"/></g><g clip-path="url(#iw0vg)"><use fill="#d2e9f7" xlink:href="#iw0vA"/></g><g clip-path="url(#iw0vg)"><use fill="#d2e9f7" xlink:href="#iw0vB"/></g><g clip-path="url(#iw0vg)"><use fill="#d2e9f7" xlink:href="#iw0vC"/></g><g clip-path="url(#iw0vg)"><use fill="#fff" fill-opacity="0" stroke="#0686d8" stroke-linecap="round" stroke-miterlimit="50" stroke-width="1.5" xlink:href="#iw0vD"/></g><g clip-path="url(#iw0vg)"><use fill="#fff" fill-opacity="0" stroke="#0686d8" stroke-linecap="round" stroke-miterlimit="50" stroke-width="1.5" xlink:href="#iw0vE"/></g><g clip-path="url(#iw0vg)"><use fill="#fff" fill-opacity="0" stroke="#0686d8" stroke-linecap="round" stroke-miterlimit="50" stroke-width="1.5" xlink:href="#iw0vF"/></g><g clip-path="url(#iw0vg)"><use fill="#fff" fill-opacity="0" stroke="#0686d8" stroke-linecap="round" stroke-miterlimit="50" stroke-width="1.5" xlink:href="#iw0vG"/></g><g clip-path="url(#iw0vg)"><use fill="#fff" fill-opacity="0" stroke="#0686d8" stroke-linecap="round" stroke-miterlimit="50" stroke-width="1.5" xlink:href="#iw0vH"/></g><g clip-path="url(#iw0vg)"><use fill="#fff" fill-opacity="0" stroke="#0686d8" stroke-linecap="round" stroke-miterlimit="50" stroke-width="1.5" xlink:href="#iw0vI"/></g><g clip-path="url(#iw0vg)"><use fill="#fff" fill-opacity="0" stroke="#0686d8" stroke-linecap="round" stroke-miterlimit="50" stroke-width="1.5" xlink:href="#iw0vJ"/></g><g clip-path="url(#iw0vg)"><use fill="#fff" fill-opacity="0" stroke="#0686d8" stroke-linecap="round" stroke-miterlimit="50" stroke-width="1.5" xlink:href="#iw0vK"/></g><g clip-path="url(#iw0vg)"><use fill="#fff" fill-opacity="0" stroke="#0686d8" stroke-miterlimit="50" stroke-width="1.5" xlink:href="#iw0vL"/></g><g clip-path="url(#iw0vg)"><use fill="#fff" fill-opacity="0" stroke="#0686d8" stroke-miterlimit="50" stroke-width="1.5" xlink:href="#iw0vM"/></g><g clip-path="url(#iw0vg)"><use fill="#fff" fill-opacity="0" stroke="#0686d8" stroke-miterlimit="50" stroke-width="1.5" xlink:href="#iw0vN"/></g><g clip-path="url(#iw0vg)"><use fill="#fff" fill-opacity="0" stroke="#0686d8" stroke-miterlimit="50" stroke-width="1.5" xlink:href="#iw0vO"/></g><g clip-path="url(#iw0vg)"><use fill="#fff" fill-opacity="0" stroke="#0686d8" stroke-miterlimit="50" stroke-width="1.5" xlink:href="#iw0vP"/></g><g clip-path="url(#iw0vg)"><use fill="#0686d8" xlink:href="#iw0vQ"/></g><g clip-path="url(#iw0vg)"><use fill="#0686d8" xlink:href="#iw0vR"/></g><g clip-path="url(#iw0vg)"><use fill="#0686d8" xlink:href="#iw0vS"/></g><g clip-path="url(#iw0vg)"><use fill="#0686d8" xlink:href="#iw0vT"/></g><g clip-path="url(#iw0vg)"><use fill="#0686d8" xlink:href="#iw0vU"/></g><g clip-path="url(#iw0vg)"><use fill="#0686d8" xlink:href="#iw0vV"/></g><g clip-path="url(#iw0vg)"><use fill="#0686d8" xlink:href="#iw0vW"/></g><g clip-path="url(#iw0vg)"><use fill="#0686d8" xlink:href="#iw0vX"/></g><g clip-path="url(#iw0vg)"><use fill="#0686d8" xlink:href="#iw0vY"/></g><g clip-path="url(#iw0vg)"><use fill="#5fb0e5" xlink:href="#iw0vZ"/></g><g clip-path="url(#iw0vg)"><use fill="#fff" fill-opacity="0" stroke="#0686d8" stroke-miterlimit="50" stroke-width="1.5" xlink:href="#iw0vaa"/></g><g clip-path="url(#iw0vg)"><use fill="#fff" fill-opacity="0" stroke="#0686d8" stroke-miterlimit="50" stroke-width="1.5" xlink:href="#iw0vab"/></g><g clip-path="url(#iw0vg)"><use fill="#fff" xlink:href="#iw0vac"/></g><g clip-path="url(#iw0vg)"><use fill="#fff" xlink:href="#iw0vad"/></g><g clip-path="url(#iw0vg)"><use fill="#fff" fill-opacity="0" stroke="#0686d8" stroke-miterlimit="50" stroke-width="1.5" xlink:href="#iw0vae"/></g><g clip-path="url(#iw0vg)"><use fill="#fff" xlink:href="#iw0vaf"/></g><g clip-path="url(#iw0vg)"><use fill="#fff" fill-opacity="0" stroke="#0686d8" stroke-miterlimit="50" stroke-width="1.5" xlink:href="#iw0vag"/></g><g clip-path="url(#iw0vg)"><use fill="#fff" fill-opacity="0" stroke="#0686d8" stroke-miterlimit="50" stroke-width="1.5" xlink:href="#iw0vah"/></g><g clip-path="url(#iw0vg)"><use fill="#fff" fill-opacity="0" stroke="#0686d8" stroke-miterlimit="50" stroke-width="1.5" xlink:href="#iw0vai"/></g><g clip-path="url(#iw0vg)"><use fill="#9ecfef" xlink:href="#iw0vaj"/></g><g clip-path="url(#iw0vg)"><use fill="#fff" fill-opacity="0" stroke="#0686d8" stroke-miterlimit="50" stroke-width="1.5" xlink:href="#iw0vak"/></g><g clip-path="url(#iw0vg)"><use fill="#0686d8" xlink:href="#iw0val"/></g><g clip-path="url(#iw0vg)"><use fill="#fff" xlink:href="#iw0vam"/></g><g clip-path="url(#iw0vg)"><use fill="#fff" fill-opacity="0" stroke="#0686d8" stroke-miterlimit="50" stroke-width="1.5" xlink:href="#iw0van"/></g><g clip-path="url(#iw0vg)"><use fill="#fff" fill-opacity="0" stroke="#0686d8" stroke-miterlimit="50" stroke-width="1.5" xlink:href="#iw0vao"/></g><g clip-path="url(#iw0vg)"><use fill="#fff" fill-opacity="0" stroke="#0686d8" stroke-miterlimit="50" stroke-width="1.5" xlink:href="#iw0vap"/></g><g clip-path="url(#iw0vg)"><use fill="#d2e9f7" xlink:href="#iw0vaq"/></g><g clip-path="url(#iw0vg)"><use fill="#fff" fill-opacity="0" stroke="#0686d8" stroke-miterlimit="50" stroke-width="1.5" xlink:href="#iw0var"/></g><g clip-path="url(#iw0vg)"><use fill="#fff" fill-opacity="0" stroke="#0686d8" stroke-miterlimit="50" stroke-width="1.5" xlink:href="#iw0vas"/></g><g clip-path="url(#iw0vg)"><use fill="#fff" fill-opacity="0" stroke="#0686d8" stroke-miterlimit="50" stroke-width="1.5" xlink:href="#iw0vat"/></g><g clip-path="url(#iw0vg)"><use fill="#fff" fill-opacity="0" stroke="#0686d8" stroke-miterlimit="50" stroke-width="1.5" xlink:href="#iw0vau"/></g><g clip-path="url(#iw0vg)"><use fill="#fff" fill-opacity="0" stroke="#0686d8" stroke-miterlimit="50" stroke-width="1.5" xlink:href="#iw0vav"/></g></g></g></svg>